<?xml version="1.0" encoding="UTF-8"?>
<svg width="264px" height="264px" viewBox="0 0 264 264" version="1.1" xmlns="http://www.w3.org/2000/svg" xmlns:xlink="http://www.w3.org/1999/xlink">
    <!-- Generator: Sketch 52.3 (67297) - http://www.bohemiancoding.com/sketch -->
    <title>miniapp_bill_intro</title>
    <desc>Created with Sketch.</desc>
    <defs>
        <path d="M15.58012,0.541793377 L6.26841714,8.15546358 L2.70454171,3.79375629 C2.30898971,3.30969007 1.59573371,3.23843311 1.11181371,3.63380397 L0.673881143,3.99219338 C0.189961143,4.3878649 0.118425143,5.1007351 0.513676571,5.58480132 L5.15239543,11.2613046 C5.54764686,11.7453709 6.26090286,11.8169285 6.74452229,11.421257 L7.18275543,11.0631682 L17.3703234,2.73301987 C17.8542434,2.33764901 17.92608,1.62417748 17.530528,1.14011126 L17.1722469,0.702046358 C16.9486217,0.428143046 16.6234034,0.286230464 16.29548,0.286230464 C16.0436011,0.286230464 15.7902194,0.370115232 15.58012,0.541793377 Z" id="path-1"></path>
        <path d="M15.58012,0.541793377 L6.26841714,8.15546358 L2.70454171,3.79375629 C2.30898971,3.30969007 1.59573371,3.23843311 1.11181371,3.63380397 L0.673881143,3.99219338 C0.189961143,4.3878649 0.118425143,5.1007351 0.513676571,5.58480132 L5.15239543,11.2613046 C5.54764686,11.7453709 6.26090286,11.8169285 6.74452229,11.421257 L7.18275543,11.0631682 L17.3703234,2.73301987 C17.8542434,2.33764901 17.92608,1.62417748 17.530528,1.14011126 L17.1722469,0.702046358 C16.9486217,0.428143046 16.6234034,0.286531126 16.2951794,0.286531126 C16.0436011,0.286531126 15.7902194,0.370115232 15.58012,0.541793377 Z" id="path-3"></path>
    </defs>
    <g id="miniapp_bill_intro" stroke="none" stroke-width="1" fill="none" fill-rule="evenodd">
        <g id="Group-2">
            <rect id="Rectangle" fill-rule="nonzero" x="0" y="0" width="264" height="264"></rect>
            <g id="Group-15" transform="translate(0.000000, 19.000000)">
                <path d="M145.456103,6.92386079 C171.771732,-7.85398954 217.813264,2.83124623 240.407218,28.2603575 C258.560831,48.6918608 274.222105,92.9833191 252.058569,123.692961 C240.455309,140.672261 228.347691,138.459387 217.5166,150.407103 C206.685809,162.35482 200.95812,187.475151 196.749218,195.307703 C192.540617,203.140255 173.191331,231.100943 142.028687,226.214881 C110.866042,221.329119 98.1094899,195.752683 93.6402934,188.421936 C89.1713974,181.090889 81.9928499,159.01807 72.5248499,152.877946 C63.0565494,146.738122 49.7634774,141.75224 39.9471151,138.151809 C30.1310534,134.551078 -2.78813063,110.296053 0.334205371,84.7971879 C3.45654137,59.2986237 19.0558979,38.9260502 55.1981094,37.3346449 C91.3403208,35.7432396 80.0502568,37.5387946 100.512559,30.8586807 C113.363189,26.6632396 123.810752,19.0790343 145.456103,6.92386079" id="Fill-1" fill="#F6F0EA"></path>
                <path d="M33.6758125,200.314632 L16.6685793,200.314632 C15.7031439,200.314632 14.9204559,199.531707 14.9204559,198.56598 L14.9204559,183.018434 L35.4239359,183.018434 L35.4239359,198.56598 C35.4239359,199.531707 34.6412479,200.314632 33.6758125,200.314632" id="Fill-3" fill="#F2DCC8"></path>
                <path d="M33.2496623,145.663405 C33.2475583,145.627325 33.2403446,145.589742 33.2241137,145.549754 C32.7516154,144.383485 33.2577777,143.630326 33.2577777,143.630326 L33.2520669,143.628222 C34.6407069,141.984501 35.4762954,139.892794 35.4762954,137.611068 C35.4762954,134.95622 34.3464474,132.557537 32.5273891,130.82452 C32.5231811,130.808885 32.5219789,130.794454 32.5153663,130.778218 C32.0431686,129.611949 32.5493309,128.85879 32.5493309,128.85879 L32.5261869,128.84977 C34.3461469,127.116753 35.4762954,124.717468 35.4762954,122.062019 C35.4762954,116.77788 31.0146131,112.494044 25.5111503,112.494044 C20.0076874,112.494044 15.5463057,116.77788 15.5463057,122.062019 C15.5463057,124.713559 16.6728474,127.109537 18.4876977,128.841953 L18.4798829,128.844959 C18.4798829,128.844959 18.9860451,129.598118 18.5135469,130.764387 C18.505732,130.78393 18.5039286,130.80197 18.49942,130.820611 C16.6776566,132.553929 15.5463057,134.954116 15.5463057,137.611068 C15.5463057,139.906624 16.3918131,142.010057 17.7957823,143.658288 C17.8898611,143.827561 18.2141777,144.525699 17.8051,145.535924 C17.7873663,145.57952 17.7810543,145.619808 17.7801526,145.658293 C14.5820726,147.933104 12.505124,151.57683 12.505124,155.691693 C12.505124,162.588284 18.3280943,168.179399 25.5111503,168.179399 C32.6942063,168.179399 38.5174771,162.588284 38.5174771,155.691693 C38.5174771,151.579836 36.4435343,147.938215 33.2496623,145.663405" id="Fill-5" fill="#C5DEAA"></path>
                <polygon id="Fill-7" fill="#9FC7A3" points="24.6982549 182.578054 25.8906217 182.578054 25.8906217 116.071865 24.6982549 116.071865"></polygon>
                <polygon id="Fill-9" fill="#9FC7A3" points="24.6504039 160.427665 19.8815376 147.905383 20.7724313 147.565334 25.5415982 160.087616"></polygon>
                <path d="M74.2597783,206.16576 C74.4187806,206.553013 74.5837943,206.936658 74.7554206,207.317296 C74.9399714,206.93786 75.1124994,206.552111 75.2847269,206.16576 L74.2597783,206.16576 Z" id="Fill-10" fill="#F7EDE5"></path>
                <path d="M50.7369381,140.599982 C50.7369381,140.599982 49.8102763,140.949652 49.8102763,140.950253 C46.1538249,142.544966 43.5794306,146.196809 43.5794306,150.424421 L43.5794306,168.732347 C43.5794306,169.132829 43.6079849,169.526396 43.6530706,169.915453 C43.6043781,170.386591 43.5794306,170.864343 43.5794306,171.347808 L43.5794306,172.272044 C43.5794306,179.968095 49.8739975,186.264564 57.5677243,186.264564 L222.983002,186.264564 C230.676428,186.264564 236.971296,179.968095 236.971296,172.272044 L236.971296,171.347808 C236.971296,170.74919 236.920499,170.162898 236.846559,169.583522 C236.870003,169.302102 236.889841,169.01948 236.889841,168.732347 L236.889841,150.424421 C236.889841,146.196809 234.315447,142.544966 230.658995,140.950253 C230.658995,140.949652 230.660498,140.940331 230.660498,140.940331 L221.120962,137.100574 C217.89042,135.799909 215.617499,132.850713 215.182572,129.394299 L214.400185,123.179911 C214.400185,115.090894 207.658668,108.53345 199.342759,108.53345 L90.7138398,108.53345 C82.3976295,108.53345 75.6561129,115.090894 75.6561129,123.179911 L74.6807586,130.928579" id="Fill-11" fill="#F1E3C7"></path>
                <polygon id="Fill-12" fill="#F1E3C7" points="55.9119966 201.164093 62.7100206 201.164093 62.7100206 186.256056 55.9119966 186.256056"></polygon>
                <polygon id="Fill-13" fill="#F1E3C7" points="79.7923966 198.025479 86.5904206 198.025479 86.5904206 186.256056 79.7923966 186.256056"></polygon>
                <polygon id="Fill-14" fill="#F1E3C7" points="196.667793 198.025479 203.465817 198.025479 203.465817 186.256056 196.667793 186.256056"></polygon>
                <polygon id="Fill-15" fill="#F1E3C7" points="217.955464 201.164093 224.753488 201.164093 224.753488 186.256056 217.955464 186.256056"></polygon>
                <polygon id="Fill-16" fill="#F1E3C7" points="55.8509806 190.367011 224.747176 190.367011 224.747176 186.124967 55.8509806 186.124967"></polygon>
                <path d="M57.2301225,158.764792 L53.4588528,145.372694 C51.4152677,138.115309 55.6160539,130.569588 62.8598254,128.485397 L65.7687557,127.648654 C73.0690345,125.548529 80.6840117,129.790272 82.7435271,137.104182 L86.5147968,150.49628 C88.5583819,157.753665 84.3578962,165.299386 77.1138242,167.383276 L74.2048939,168.220319 C66.9046151,170.320445 59.2896379,166.078702 57.2301225,158.764792" id="Fill-17" fill="#CEAA8B"></path>
                <path d="M99.4797049,154.907446 C98.8310718,154.907446 98.1899529,154.721035 97.6356992,154.360842 L76.9173106,140.897487 C75.3492295,139.879144 74.9040832,137.781423 75.9230203,136.212868 C76.9404546,134.645516 79.0363392,134.19783 80.6056226,135.218578 L98.2031781,146.653666 L110.031866,127.120842 C110.897512,125.464193 112.943201,124.823782 114.599951,125.687886 C116.2567,126.554094 116.89812,128.6001 116.031873,130.257952 L102.479708,153.089642 C102.038469,153.935104 101.260891,154.554769 100.338738,154.796201 C100.0556,154.871066 99.7667506,154.907446 99.4797049,154.907446" id="Fill-18" fill="#EBAF9E"></path>
                <path d="M113.440166,127.700098 C111.984498,127.256621 111.005838,125.850724 111.143499,124.314941 C111.283566,122.750295 113.37915,120.008255 114.699259,119.067483 C117.341583,117.185037 120.613002,119.763817 120.613002,119.763817 C120.613002,119.763817 119.108342,124.122818 117.196707,127.170932 C116.64576,128.048866 115.569714,128.430707 114.596464,128.083743 C114.16815,127.931006 113.783719,127.804728 113.440166,127.700098" id="Fill-19" fill="#F4CFC3"></path>
                <path d="M122.391033,113.066475 C122.454153,113.280847 122.473089,113.509952 122.386825,113.737854 L118.042966,125.186772 C117.856311,125.678655 117.339329,125.961278 116.82475,125.853039 L112.057687,124.85003 C111.950684,124.82748 111.86442,124.770956 111.773948,124.721046 C111.88035,125.083344 112.15357,125.389117 112.556636,125.473904 L117.323699,126.476914 C117.838277,126.585453 118.35526,126.302529 118.541915,125.810646 L122.885773,114.361728 C123.079642,113.850903 122.84219,113.315423 122.391033,113.066475" id="Fill-20" fill="#76787A"></path>
                <path d="M116.82466,125.853099 C117.339238,125.961338 117.856221,125.678715 118.042876,125.186832 L122.386734,113.737914 C122.473299,113.509711 122.454062,113.280907 122.390942,113.066535 C122.30047,113.016625 122.214206,112.9598 122.107203,112.93725 L117.34014,111.934542 C116.825562,111.826303 116.308579,112.108926 116.121924,112.600809 L111.778066,124.049727 C111.691802,124.277629 111.710738,124.506734 111.773858,124.721106 C111.86433,124.771016 111.950594,124.827541 112.057898,124.85009 L116.82466,125.853099 Z" id="Fill-21" fill="#8F9398"></path>
                <path d="M116.689613,124.658719 C117.148285,124.754329 117.609061,124.50478 117.775578,124.071225 L121.647239,113.975888 C121.724485,113.775046 121.707353,113.573001 121.651146,113.383884 C121.570593,113.339988 121.493647,113.290078 121.398065,113.270234 L117.587721,112.493323 C117.128748,112.397712 116.667972,112.646961 116.501756,113.080817 L112.629795,123.175852 C112.552849,123.376995 112.569681,123.57874 112.625888,123.767856 C112.706741,123.811753 112.783688,123.861964 112.878969,123.881807 L116.689613,124.658719 Z" id="Fill-22" fill="#DEE6ED"></path>
                <path d="M115.280625,121.928555 C113.995982,122.542207 112.281222,122.673596 112.281222,122.673596 L112.284529,122.681714 C111.641005,122.764095 111.133941,123.416232 111.127028,124.222307 C111.120115,125.088215 111.511158,126.05785 112.745004,125.867832 C114.106292,125.65827 115.422494,123.980876 115.606444,123.577988 C115.913328,122.906609 116.124329,121.468241 115.280625,121.928555" id="Fill-23" fill="#F4CFC3"></path>
                <path d="M120.352166,123.84657 C120.773868,123.117765 120.476904,121.747647 120.121929,121.468331 C118.909724,120.513729 117.898001,121.161355 117.552644,121.890161 C117.180236,122.781323 117.169416,123.731416 117.898001,123.999908 C118.472994,124.306884 118.45015,124.585598 118.894996,124.882351 C119.355171,125.189027 119.93828,124.561545 120.352166,123.84657" id="Fill-24" fill="#F4CFC3"></path>
                <path d="M177.490825,147.092512 L181.08596,164.824369 L170.703321,164.651789 C170.703321,164.651789 170.395235,147.758179 170.664848,147.476157 C170.93446,147.193835 177.490825,147.092512 177.490825,147.092512" id="Fill-25" fill="#C78536"></path>
                <path d="M77.9559953,128.790149 C76.4396125,126.003611 76.3575565,124.039986 76.3575565,124.039986 C76.212681,123.651831 76.3954285,123.218276 76.7741485,123.050807 L78.7495039,122.229398 C80.0894513,121.347555 80.3220936,120.489766 80.1775187,119.595596 L79.9130159,118.882426 C78.5847907,118.960898 76.9683176,119.047188 76.4907096,118.250734 C77.7951896,117.933235 79.2084765,117.537864 79.2084765,117.537864 C79.4110616,117.487353 79.9707256,117.429926 79.9061027,117.231188 C79.6996102,116.59619 79.793689,115.367383 80.3930285,115.202921 L81.0714182,115.017112 C81.5616502,114.882716 81.7720502,114.304241 81.4822993,113.886622 L78.7945896,110.244098 C78.1240147,109.335196 77.6214593,108.312043 77.3118707,107.225449 C77.2009599,106.836994 77.1137942,106.532122 77.1116902,106.527913 C75.5336902,103.683047 73.9830422,103.76603 71.4516296,104.175832 L65.0476547,105.211914 C62.2138673,105.670424 60.2703725,108.364659 60.7287439,111.199302 L60.9057805,112.295216 C61.5249576,116.12415 63.8156125,119.282006 66.9057873,121.159641 L66.0852273,121.432041 L72.5490159,137.067381 L81.6455096,135.831659 C82.5391085,135.710492 82.8961873,134.610068 82.2394387,133.991906 C80.8766479,132.709582 79.0344456,130.771814 77.9559953,128.790149" id="Fill-26" fill="#F0CDC6"></path>
                <path d="M212.606765,150.491018 C211.528916,150.945619 209.841508,153.036725 207.263808,154.784475 C204.980667,156.332585 205.825273,155.716227 201.463681,157.258625 L201.461577,157.272154 L151.574535,156.991637 C149.693559,156.940223 148.166355,158.455561 148.136599,160.325079 C148.108044,162.194597 149.600081,163.734589 151.468733,163.764354 L195.012216,164.436034 C195.029649,164.436034 200.411681,164.276683 202.916042,164.555697 C203.544537,164.913185 204.281538,165.294425 205.152895,165.671455 C205.888994,165.989856 206.541234,166.128161 207.123441,166.107115 C207.186561,166.13237 207.244571,166.163038 207.313402,166.18228 C208.439643,166.112527 209.270423,165.409879 209.798226,163.991354 C210.59985,161.838011 210.684912,160.249312 212.157411,158.57763 C213.902228,156.596266 214.590537,154.990729 214.995106,153.028607 C215.369017,151.216215 214.101808,149.958545 212.606765,150.491018" id="Fill-27" fill="#EFC1B7"></path>
                <path d="M201.665184,153.616101 C200.508284,153.487117 198.167134,154.742082 195.063734,155.01388 C193.28375,155.169623 193.230548,155.580027 189.714163,154.582129 L155.529574,135.634695 C153.939851,134.66085 151.857793,135.249546 150.881838,136.890561 C149.906784,138.532177 149.235908,141.361709 150.825931,142.309998 L179.463175,157.286286 C179.478203,157.294704 184.182146,159.809143 186.191466,161.291708 C186.549747,161.918288 186.989183,162.619132 187.545841,163.383115 C188.016235,164.028336 188.506167,164.472715 189.017138,164.741206 C189.058316,164.794724 189.092882,164.850346 189.142176,164.901459 C190.144882,165.395146 191.215818,165.182578 192.390151,164.186785 C194.173441,162.675055 195.299682,160.531634 197.450872,159.904753 C200.614687,158.638664 201.217934,157.814248 202.627914,156.337095 C203.838916,155.068901 203.22004,153.882188 201.665184,153.616101" id="Fill-28" fill="#F3CCC5"></path>
                <path d="M136.972744,124.903909 C136.820655,124.53229 136.661954,124.175705 136.503252,123.81942 C135.696819,122.004021 134.861531,120.127889 134.861531,116.421325 C134.861531,112.71446 135.696819,110.838027 136.504454,109.022929 L137.511669,109.597795 C136.729282,111.356068 135.989876,113.017227 135.989876,116.421325 C135.989876,119.824821 136.729282,121.486882 137.511669,123.245756 C137.675781,123.61497 137.839893,123.983882 137.997693,124.367828 L136.972744,124.903909 Z" id="Fill-29" fill="#FEFEFE"></path>
                <path d="M79.8366407,131.706031 C79.8366407,131.706031 85.5285618,133.310966 89.1693835,133.410786 C92.6016087,133.504894 95.3049481,134.010608 97.5616384,136.220776 C99.4675618,138.087588 99.9169161,140.001002 99.9367538,141.968536 C99.9580944,144.084597 102.891371,146.706372 104.931049,147.268009 C112.290841,147.570475 111.686091,147.469753 117.130041,147.369031 C117.936774,152.310415 118.440833,154.324552 118.440833,158.311033 C118.440833,161.538041 116.525291,164.81556 116.525291,164.81556 C116.525291,164.81556 113.740196,164.81556 87.1242955,163.202206 C77.1441218,156.599964 66.2063275,139.960413 72.5339573,132.552696 C75.848659,132.680177 77.6689195,135.961605 80.0716875,134.527747 C82.0223961,133.363883 79.8366407,131.706031 79.8366407,131.706031" id="Fill-30" fill="#E3A495"></path>
                <path d="M117.322797,164.513124 C117.322797,164.210657 117.130131,147.369061 117.130131,147.369061 C117.130131,147.369061 122.269602,146.402132 131.319807,141.798993 C138.989188,137.349191 144.662474,133.359704 149.419918,133.359704 C158.623415,133.359704 177.490885,147.130937 177.490885,147.130937 C177.490885,147.130937 169.948346,149.422885 173.868098,157.125852 C176.570535,162.43645 182.150043,161.573248 182.092634,164.047398 C182.06438,165.260871 179.479466,164.801158 177.720822,164.793341 L117.322797,164.513124 Z" id="Fill-31" fill="#ECB96C"></path>
                <polygon id="Fill-32" fill="#BCD3DA" points="133.674274 166.198847 128.059599 166.198847 125.736483 151.88131 135.997691 151.88131"></polygon>
                <path d="M131.739616,145.803483 L130.61127,145.803483 C130.61127,142.095716 131.446558,140.219584 132.254194,138.404486 C133.036581,136.645311 133.775987,134.983551 133.775987,131.578851 C133.775987,128.175355 133.036581,126.513294 132.254194,124.754419 C131.446558,122.940524 130.61127,121.062888 130.61127,117.355121 C130.61127,113.647655 131.446558,111.771222 132.254194,109.956124 C133.036581,108.197551 133.775987,106.536392 133.775987,103.132294 L134.904332,103.132294 C134.904332,106.839459 134.069044,108.715592 133.261409,110.530088 C132.479021,112.289263 131.739616,113.950422 131.739616,117.355121 C131.739616,120.759821 132.479021,122.421882 133.261409,124.180756 C134.069044,125.994651 134.904332,127.872287 134.904332,131.578851 C134.904332,135.286317 134.069044,137.162751 133.261409,138.977849 C132.479021,140.737023 131.739616,142.398784 131.739616,145.803483" id="Fill-33" fill="#FEFEFE"></path>
                <path d="M128.169338,143.888535 L127.040993,143.888535 C127.040993,140.206926 127.709764,138.340715 128.357195,136.535539 C128.676703,135.644075 128.978777,134.801319 129.207812,133.736674 L130.303696,134.038539 C130.055724,135.195487 129.724194,136.120325 129.402883,137.015396 C128.768377,138.784493 128.169338,140.456475 128.169338,143.888535" id="Fill-34" fill="#FEFEFE"></path>
                <path d="M135.848788,148.061216 L134.720443,148.061216 C134.720443,144.353449 135.555731,142.477317 136.362164,140.663421 C136.776652,139.733473 137.166793,138.855539 137.453238,137.727454 L138.537399,138.078929 C138.2224,139.321866 137.789277,140.295711 137.370581,141.236784 C136.588193,142.995959 135.848788,144.657719 135.848788,148.061216" id="Fill-35" fill="#FEFEFE"></path>
                <path d="M106.096394,165.939977 C101.747426,165.939977 97.105401,165.899688 93.3284205,165.771004 C89.9860662,165.657655 86.8174422,164.409606 84.4071599,162.256263 C75.8616136,154.621847 69.6382822,142.574611 69.4221713,142.055668 C68.3954193,139.58693 69.5637405,136.75409 72.032033,135.727028 C74.4976205,134.701169 77.3296045,135.867738 78.3563565,138.332868 L79.4095587,138.092939 C79.4543439,138.200276 83.9758399,148.890022 90.854417,155.035257 C91.5784936,155.681681 92.573385,156.057509 93.656945,156.09419 C103.382535,156.427624 119.65968,156.145002 119.823792,156.143799 C119.852046,156.142596 119.881802,156.142596 119.910056,156.142596 C122.543362,156.142596 124.700864,158.254749 124.746851,160.898472 C124.794041,163.57166 122.666296,165.777018 119.993915,165.823019 C119.573416,165.831137 113.231359,165.939977 106.096394,165.939977" id="Fill-36" fill="#EBAF9E"></path>
                <path d="M64.7899147,137.353852 C66.3625045,137.745614 67.8088542,137.178565 67.926077,138.795527 C67.9768736,139.499077 67.3652107,142.551099 68.9982153,144.520437 C71.2984885,147.294648 74.3919696,147.089596 78.3525993,144.776902 C81.1872885,143.393855 82.496277,139.975326 81.0649559,136.666838 C79.5936587,133.266048 76.9925136,134.199003 76.6573765,133.025518 C76.4015902,132.129244 76.5185125,130.194482 75.6865307,128.947936 C72.7108736,125.532112 70.6937387,129.8394 71.2392759,122.178526 C70.5317307,117.20016 66.7607616,117.37244 67.2518953,114.026369 C67.5064793,113.252765 67.7899182,112.986379 68.1088245,112.943985 C69.6886279,112.733822 69.9296862,114.264193 72.4779307,113.301473 C75.9819925,111.995396 75.931797,108.725995 76.9152667,106.713361 C78.8969342,106.02725 80.1542245,105.059418 79.4217319,102.857669 C77.9143662,98.3278913 74.057133,98.501674 70.9801833,100.634873 C68.1451936,102.041671 67.6516553,102.036861 65.1812587,102.224173 C62.0063227,102.334216 59.596341,103.557009 58.4493605,105.474032 C56.9627342,107.957803 56.3122976,112.339053 57.0844656,115.196547 C58.2188222,119.393491 60.4520679,119.391988 61.0282633,122.971973 C61.6468393,127.022796 58.8076416,128.876379 59.8497227,132.884206 C60.7643616,135.527028 63.1262519,136.939238 64.7899147,137.353852" id="Fill-37" fill="#593626"></path>
                <path d="M123.43651,164.55678 C123.43651,164.274759 123.350246,157.314127 123.350246,157.314127 C123.350246,157.314127 123.911413,156.467462 126.502038,156.467462 C128.833571,156.467462 129.728372,157.240164 133.138054,158.404629 C135.549839,158.654479 135.300365,160.48461 135.050891,162.065192 C134.793301,163.695984 133.453354,164.791898 131.29465,164.886005 C129.135645,164.980112 123.43651,164.55678 123.43651,164.55678" id="Fill-38" fill="#F4CFC3"></path>
                <path d="M135.949118,151.962158 C135.949118,152.809425 133.673793,153.496137 130.867057,153.496137 C128.06002,153.496137 125.784694,152.809425 125.784694,151.962158 C125.784694,151.114892 128.06002,150.42818 130.867057,150.42818 C133.673793,150.42818 135.949118,151.114892 135.949118,151.962158" id="Fill-39" fill="#D1E5E9"></path>
                <path d="M119.287813,61.2349487 L119.065991,65.6582918 C119.026316,66.4481315 119.639782,67.1267262 120.429383,67.1664136 L136.012509,67.9484362 C136.80211,67.9881236 137.4805,67.3741713 137.520175,66.5846322 L137.741997,62.1609885 L137.469078,62.1474587 L119.287813,61.2349487 Z" id="Fill-40" fill="#DFDFDE"></path>
                <path d="M119.731366,61.7248478 L119.532989,65.6812624 C119.506238,66.2158399 119.918622,66.6725458 120.452738,66.6993048 L136.035863,67.4813273 C136.570279,67.5080862 137.026847,67.0949763 137.053598,66.5606995 L137.251975,62.6039842 L119.731366,61.7248478 Z M135.988974,68.4151842 L120.406149,67.6331617 C119.357155,67.5805458 118.546814,66.6842717 118.599414,65.6346597 L118.84468,60.7443882 L138.232439,61.7170306 L137.987173,66.6076028 C137.934272,67.656914 137.038269,68.4678001 135.988974,68.4151842 Z" id="Fill-41" fill="#DFDFDE"></path>
                <path d="M120.56948,35.6802208 L119.21781,62.630683 C119.197371,63.0377797 119.510867,63.3841426 119.91754,63.4045877 L137.635024,64.293646 L139.023363,36.6095678 C139.043802,36.2024711 138.733612,35.8561082 138.326939,35.8356632 C135.364507,35.6868354 124.301675,35.1306102 121.339243,34.9799784 C120.932269,34.9592327 120.589918,35.2731241 120.56948,35.6802208" id="Fill-42" fill="#AAA9A8"></path>
                <path d="M121.315678,35.4465461 C121.167196,35.4390295 121.043962,35.5517779 121.036447,35.703913 L119.684778,62.6540746 C119.677263,62.8026017 119.792382,62.9300825 119.941165,62.9375991 L137.191861,63.8032057 L138.556756,36.586056 C138.56427,36.4375289 138.450654,36.3100481 138.303374,36.3028322 C135.341243,36.1540044 124.27781,35.5968772 121.315678,35.4465461 Z M138.078547,64.7836653 L119.894276,63.8711554 C119.230614,63.8377819 118.71814,63.2710335 118.751203,62.6071713 L120.102872,35.6573103 C120.136236,34.9934481 120.701611,34.4796163 121.362868,34.5126891 C124.3256,34.6633209 135.387831,35.2201474 138.350263,35.3689752 C139.011821,35.4020481 139.523694,35.9690971 139.490331,36.6329593 L138.078547,64.7836653 Z" id="Fill-43" fill="#DFDFDE"></path>
                <path d="M128.355332,64.8793661 C128.040032,64.863431 127.771622,65.1063661 127.755692,65.4217608 C127.740062,65.7371555 127.982623,66.0056469 128.297922,66.021582 C128.613222,66.0372164 128.881632,65.794582 128.897562,65.4791873 C128.913493,65.1637926 128.670631,64.8953012 128.355332,64.8793661" id="Fill-44" fill="#BBB8B6"></path>
                <path d="M128.332097,65.3459338 C128.274688,65.3429272 128.225395,65.3880265 128.222389,65.445453 C128.216678,65.5606066 128.424974,65.5708291 128.430685,65.4559762 C128.433691,65.3985497 128.389507,65.3489404 128.332097,65.3459338 M128.274688,66.4884503 C127.7024,66.4598874 127.26026,65.9704093 127.289115,65.3988503 C127.317669,64.8260887 127.806398,64.3835139 128.378987,64.4120768 C128.950974,64.4409404 129.392814,64.9301179 129.36426,65.5028795 C129.335405,66.0747391 128.846676,66.5173139 128.274688,66.4884503" id="Fill-45" fill="#BBB8B6"></path>
                <path d="M138.916901,35.8651281 L139.060273,35.872344 L139.094238,35.1955532 C139.133913,34.4057135 138.520447,33.7271188 137.730846,33.6874314 L122.14772,32.9054089 C121.358119,32.8660221 120.679729,33.4796738 120.640354,34.2695135 L120.60639,34.9423956 C120.731427,34.9511148 120.789137,34.9553241 120.749762,34.9535201 L138.916901,35.8651281 Z" id="Fill-46" fill="#DFDFDE"></path>
                <path d="M121.096622,34.503098 L138.617231,35.3822344 L138.627751,35.1717709 C138.654502,34.637494 138.241517,34.1813894 137.707401,34.1546305 L122.124275,33.3726079 C121.59016,33.345849 121.133893,33.758057 121.107142,34.2923338 L121.096622,34.503098 Z M139.503917,36.3629947 L120.726618,35.4207192 L120.739543,35.163653 L120.712191,35.4189152 L120.117059,35.3753192 L120.173867,34.2457311 C120.226167,33.1970212 121.122471,32.3864358 122.171165,32.4390517 L137.75429,33.2210742 C138.803585,33.2736901 139.613926,34.1699642 139.561326,35.2186742 L139.503917,36.3629947 Z" id="Fill-47" fill="#DFDFDE"></path>
                <path d="M152.718089,69.4495826 L132.348062,68.427331 C132.257891,68.4228211 132.188759,68.3461522 132.193268,68.2562542 L132.85182,55.123327 C132.856329,55.033429 132.932974,54.963976 133.022845,54.968486 L153.393172,55.9907376 C153.483043,55.9952475 153.552475,56.0719164 153.547966,56.1621151 L152.889114,69.2947416 C152.884605,69.3849403 152.807959,69.4540926 152.718089,69.4495826" id="Fill-48" fill="#E9B65A"></path>
                <polygon id="Fill-49" fill="#FEFEFE" points="153.226655 61.6897305 132.569583 60.653047 132.687107 58.3117901 153.344179 59.3484735"></polygon>
                <polygon id="Fill-50" fill="#FEFEFE" points="150.029567 67.321826 146.389347 67.1390233 147.445254 65.4886882 151.085475 65.6711902"></polygon>
                <path d="M131.48398,42.6283751 C131.9679,42.6067274 132.463842,42.6028188 132.967901,42.6169499" id="Stroke-51" stroke="#E9B14F" stroke-width="0.5" stroke-dasharray="0.8999999999999999,0,0"></path>
                <path d="M134.790115,42.7423862 C136.877584,42.9702882 139.023664,43.4886299 140.980985,44.2980127" id="Stroke-52" stroke="#E9B14F" stroke-width="0.5" stroke-dasharray="0.8999999999999999,0,0"></path>
                <path d="M141.816663,44.6671658 C145.069447,46.19904 147.662778,48.5868996 148.349283,51.8325486" id="Stroke-53" stroke="#E9B14F" stroke-width="0.5" stroke-dasharray="0.8999999999999999,0,0"></path>
                <path d="M148.488267,52.7377825 C148.534555,53.2158355 148.541168,53.7110262 148.504197,54.2227534" id="Stroke-54" stroke="#E9B14F" stroke-width="0.5" stroke-dasharray="0.8999999999999999,0,0"></path>
                <polygon id="Fill-55" fill="#FEFCFC" points="93.7071405 83.8938783 70.9451667 88.7372465 65.1252022 61.369465 87.8871759 56.5260968"></polygon>
                <polygon id="Fill-56" fill="#DCDCDC" points="88.7936392 60.8347372 65.8221672 65.7226034 64.4873295 59.4456776 87.4588015 54.5575107"></polygon>
                <path d="M76.1895971,69.1778441 C76.5460749,69.1573991 76.8015606,69.1177117 77.3065206,69.0103752 L78.1439126,68.8320825 C78.5956714,68.7361713 78.8051697,68.6766401 79.2322817,68.5305183 C79.3251583,69.3579408 79.4294566,70.0452547 79.5818463,70.7626348 L80.9557583,77.2232653 C81.0886109,77.8477408 81.1971171,78.2274772 81.381668,78.7019223 L80.1189674,78.9704136 C80.1000314,78.4881514 80.0360097,78.0570017 79.9061629,77.4466574 L78.2695514,69.7500044 L77.5517869,69.9027408 C77.1264783,69.9932401 76.7868326,70.0927593 76.4129217,70.2277567 L76.1895971,69.1778441 Z" id="Fill-57" fill="#A0A0A0"></path>
                <polygon id="Fill-58" fill="#EFE4E2" points="87.3609354 85.250316 92.9524657 80.2890882 89.610412 78.7409783"></polygon>
                <polygon id="Fill-59" fill="#E4E4E4" points="87.7799621 56.0439248 64.7736238 60.7835645 64.2593461 58.2853619 87.2656843 53.5457221"></polygon>
                <path d="M70.2463081,60.9893377 L68.819195,61.2930066 C68.718203,61.3143536 68.6178121,61.2494106 68.5964715,61.1483881 L67.7329298,57.0879444 C67.7115893,56.9869219 67.7765127,56.8865007 67.8778053,56.8651536 L69.3046178,56.5614848 C69.4056098,56.5401377 69.5060007,56.6050808 69.5276418,56.7061033 L70.390883,60.766547 C70.4125241,60.8675695 70.3473001,60.9676901 70.2463081,60.9893377" id="Fill-60" fill="#C8C8C6"></path>
                <path d="M77.4842184,59.4492254 L76.0571053,59.7528943 C75.9561133,59.774542 75.8557224,59.7092983 75.8343818,59.6082758 L74.9708401,55.5478321 C74.9494995,55.4468095 75.014423,55.346689 75.1157155,55.3250413 L76.5425281,55.0213725 C76.6438207,55.0000254 76.743911,55.0649685 76.7655521,55.165991 L77.6287933,59.2264347 C77.6504344,59.3274572 77.5852104,59.4275777 77.4842184,59.4492254" id="Fill-61" fill="#C8C8C6"></path>
                <path d="M84.7221287,57.909083 L83.2950155,58.2127519 C83.1940235,58.2343996 83.0936327,58.1691559 83.0722921,58.0681334 L82.2087504,54.0076897 C82.1874098,53.9066672 82.2523333,53.8065466 82.3536258,53.7848989 L83.7804384,53.4812301 C83.8814304,53.459883 83.9818213,53.5248261 84.0034624,53.6258486 L84.8667035,57.6862923 C84.8883447,57.7873148 84.8231207,57.8874354 84.7221287,57.909083" id="Fill-62" fill="#C8C8C6"></path>
                <path d="M197.316757,61.5986599 C197.93383,57.7904718 197.574647,55.917346 197.011376,52.5769883 C231.947996,56.0881221 225.602933,55.4504175 225.602933,55.4504175 C225.602933,55.4504175 229.882168,71.98624 218.54792,83.6693738" id="Fill-63" fill="#FEFEFE"></path>
                <path d="M176.298999,79.4231509 L218.548165,83.6694038 C218.548165,83.6694038 218.727061,64.7667681 209.388006,62.8118621 C199.363348,61.843429 185.555096,60.416486 185.555096,60.416486 L176.298999,79.4231509 Z" id="Fill-64" fill="#CBCCCB"></path>
                <path d="M163.072053,92.4405034 C187.678633,94.9134505 189.264749,95.0731021 189.264749,95.0731021 C189.264749,95.0731021 198.871613,62.4584637 209.388006,62.8117419 C184.871296,60.3186505 182.924195,60.1520836 182.924195,60.1520836 C182.924195,60.1520836 177.411113,59.597963 173.721599,68.3159657 C170.081379,77.4203193 165.629014,85.6608703 163.072053,92.4405034" id="Fill-65" fill="#FEFEFE"></path>
                <path d="M231.416585,85.5034436 C230.666359,92.9736979 224.003893,98.4210966 216.535895,97.6703429 C209.067897,96.9198899 203.622144,90.2557111 204.372671,82.7854568 C205.122897,75.3152025 211.785364,69.8678038 219.253361,70.6182568 C226.721059,71.3690105 232.166812,78.0331893 231.416585,85.5034436" id="Fill-66" fill="#F1E3C7"></path>
                <path d="M216.067334,87.4851987 L225.378737,79.8715285 C225.862657,79.4761576 226.575612,79.5477152 226.971164,80.0317815 L227.329445,80.4698464 C227.724997,80.9539126 227.653161,81.6670834 227.169241,82.062755 L216.981673,90.3926026 L216.54344,90.7509921 C216.05952,91.1466636 215.346564,91.075106 214.951012,90.5910397 L210.312894,84.9145364 C209.917342,84.4304702 209.988878,83.7176 210.472798,83.3219285 L210.910731,82.9635391 C211.394651,82.5678675 212.107606,82.6397258 212.503158,83.1237921 L216.067334,87.4851987 Z" id="Fill-67" fill="#AFC990"></path>
                <g id="Group-71" transform="translate(209.798857, 79.329735)">
                    <mask id="mask-2" fill="white">
                        <use xlink:href="#path-1"></use>
                    </mask>
                    <g id="Clip-70"></g>
                    <polygon id="Fill-69" fill="#AFC990" mask="url(#mask-2)" points="-220.92 509.435475 130.949654 544.79997 193.832503 -81.2479903 -158.037151 -116.612486"></polygon>
                </g>
                <g id="Group-74" transform="translate(209.798857, 79.329735)">
                    <mask id="mask-4" fill="white">
                        <use xlink:href="#path-3"></use>
                    </mask>
                    <g id="Clip-73"></g>
                    <polygon id="Fill-72" fill="#AFC990" mask="url(#mask-4)" points="-6.83718846 4.04162225 12.8424253 -12.0495208 24.8815133 2.68353086 5.20189954 18.7746739"></polygon>
                </g>
                <g id="Group-99" transform="translate(121.130286, 46.256887)">
                    <path d="M53.7977471,36.9381015 C53.7770077,36.9359968 53.7562682,36.9323889 53.7361299,36.9290816 C53.5215219,36.8884922 53.3354682,36.7565015 53.2272625,36.5664829 L51.8831071,34.197565 C51.6814237,33.8412803 51.8064614,33.3896856 52.1620374,33.1870392 C52.5179139,32.9886021 52.9702739,33.109769 53.1722579,33.4660538 L54.0826888,35.0715902 L56.0391082,33.4717664 C56.3559105,33.2128962 56.8223974,33.2597995 57.0811894,33.5766975 C57.3402819,33.8935955 57.2933928,34.3602233 56.9765905,34.6190935 L54.3405791,36.7745412 C54.1878888,36.8987147 53.9922168,36.9576445 53.7977471,36.9381015" id="Fill-75" fill="#E4B97F"></path>
                    <path d="M56.8287394,37.3358475 C56.8251326,37.3355469 56.8215257,37.3352462 56.8179189,37.3346449 L50.7157177,36.6283893 C50.3090446,36.5817866 50.0180914,36.2134754 50.06468,35.8066793 C50.1121703,35.3998833 50.4626366,35.0435985 50.8855406,35.1560462 L56.9877417,35.8623019 C57.3944149,35.9092052 57.685368,36.2772158 57.6387794,36.6843125 C57.5915897,37.0865985 57.2312046,37.3761363 56.8287394,37.3358475" id="Fill-77" fill="#E4B97F"></path>
                    <path d="M55.5143105,40.3838412 C55.5107037,40.3835405 55.5070968,40.3832399 55.5034899,40.3826385 L49.4012888,39.6763829 C48.9946157,39.6297803 48.7036625,39.261469 48.7502511,38.854673 C48.7977414,38.447877 49.1509128,38.1297763 49.5711117,38.2040399 L55.6733128,38.9102955 C56.0799859,38.9571988 56.3709391,39.3252094 56.3243505,39.7323061 C56.2771608,40.1345922 55.9167757,40.4244306 55.5143105,40.3838412" id="Fill-79" fill="#E4B97F"></path>
                    <path d="M51.3939872,43.5849321 C51.3341735,43.5789188 51.2743598,43.5656897 51.2157483,43.5437413 C50.8304158,43.4045347 50.6317381,42.9803003 50.7706021,42.5957532 L53.1751735,35.9490128 C53.3140375,35.5644658 53.7351381,35.3594142 54.1234763,35.504634 C54.5085083,35.6438407 54.7074866,36.0680751 54.5683221,36.4526221 L52.1640512,43.0993625 C52.0462272,43.4249797 51.7237141,43.6180049 51.3939872,43.5849321" id="Fill-81" fill="#E4B97F"></path>
                    <path d="M74.3260843,22.1913396 L58.1926123,20.5698681 C58.0002466,20.5506257 57.8598798,20.3789475 57.8794169,20.1865237 C57.8986535,19.9944005 58.0702798,19.8539913 58.2626455,19.8732336 L74.3961175,21.4947052 C74.5881826,21.5139475 74.7285495,21.6856257 74.7093129,21.8780495 C74.6900763,22.0704734 74.5184501,22.210582 74.3260843,22.1913396" id="Fill-83" fill="#CBCCCB"></path>
                    <path d="M72.9082889,25.8016919 L56.7748169,24.1802204 C56.5824512,24.160978 56.4420843,23.9892999 56.4616215,23.796876 C56.4808581,23.6044522 56.6524843,23.4643436 56.8448501,23.483586 L72.9783221,25.1050575 C73.1703872,25.1242999 73.3107541,25.295978 73.2915175,25.4884019 C73.2722809,25.680525 73.1006546,25.8209343 72.9082889,25.8016919" id="Fill-85" fill="#CBCCCB"></path>
                    <path d="M71.2700243,29.2725971 L55.1365523,27.6511256 C54.9441866,27.6318832 54.8038198,27.460205 54.8233569,27.2677812 C54.8425935,27.0753574 55.0142198,26.9352487 55.2065855,26.9544911 L71.3400575,28.5759626 C71.5321226,28.595205 71.6724895,28.7668832 71.6532529,28.959307 C71.6340163,29.1514302 71.4623901,29.2918395 71.2700243,29.2725971" id="Fill-87" fill="#CBCCCB"></path>
                    <path d="M68.9331115,37.3642601 L60.9243858,36.5593873 C60.7320201,36.5401449 60.5919538,36.3684668 60.6111904,36.1760429 C60.630427,35.9836191 60.8020533,35.8435105 60.994419,35.8627528 L69.0031447,36.6676257 C69.1952098,36.6868681 69.3355767,36.8585462 69.3163401,37.0509701 C69.2971035,37.2433939 69.1254773,37.3835025 68.9331115,37.3642601" id="Fill-89" fill="#CBCCCB"></path>
                    <path d="M67.6897077,40.4057595 L59.6809819,39.6008866 C59.4886162,39.5816442 59.3485499,39.4096654 59.3677865,39.2175423 C59.3870231,39.0251184 59.5586494,38.8850098 59.7510151,38.9042522 L67.7597408,39.709125 C67.9518059,39.7283674 68.0921728,39.9000456 68.0729362,40.0924694 C68.0536997,40.2848932 67.8820734,40.4250019 67.6897077,40.4057595" id="Fill-91" fill="#CBCCCB"></path>
                    <path d="M66.5740166,43.3427787 L58.5652909,42.5379058 C58.3729251,42.5186634 58.2328589,42.3466846 58.2520954,42.1545615 C58.271332,41.9621376 58.4429583,41.822029 58.635324,41.8412714 L66.6440497,42.6461442 C66.8361149,42.6653866 66.9764817,42.8370648 66.9572451,43.0294886 C66.9380086,43.2219125 66.7663823,43.3620211 66.5740166,43.3427787" id="Fill-93" fill="#CBCCCB"></path>
                    <polygon id="Fill-95" fill="#F3F3F4" points="16.2100877 1.7909849 0.103967657 13.068826 0.103967657 11.457577 16.2100877 0.179735894"></polygon>
                    <polygon id="Fill-97" fill="#F3F3F4" points="6.31629817 4.7830253 0.103787314 9.04100411 0.103787314 7.4297551 6.31629817 3.17177629"></polygon>
                </g>
            </g>
        </g>
    </g>
</svg>